<mxfile host="app.diagrams.net" modified="2024-03-16T10:34:09.935Z" agent="Mozilla/5.0 (Windows NT 10.0; Win64; x64) AppleWebKit/537.36 (KHTML, like Gecko) Chrome/122.0.0.0 Safari/537.36" etag="InQguKb-oWOG00VEscrF" version="24.0.6" type="github">
  <diagram name="Pagina-1" id="RMfqT2AOJKYx-fi7EhGL">
    <mxGraphModel dx="1272" dy="530" grid="1" gridSize="10" guides="1" tooltips="1" connect="1" arrows="1" fold="1" page="1" pageScale="1" pageWidth="827" pageHeight="1169" math="0" shadow="0">
      <root>
        <mxCell id="0" />
        <mxCell id="1" parent="0" />
        <mxCell id="pNp7g_-f6zzDylvKtAG7-4" style="edgeStyle=orthogonalEdgeStyle;rounded=0;orthogonalLoop=1;jettySize=auto;html=1;exitX=1;exitY=0.5;exitDx=0;exitDy=0;entryX=0;entryY=0.5;entryDx=0;entryDy=0;" edge="1" parent="1" source="pNp7g_-f6zzDylvKtAG7-1" target="pNp7g_-f6zzDylvKtAG7-2">
          <mxGeometry relative="1" as="geometry" />
        </mxCell>
        <mxCell id="pNp7g_-f6zzDylvKtAG7-14" style="edgeStyle=orthogonalEdgeStyle;rounded=0;orthogonalLoop=1;jettySize=auto;html=1;exitX=1;exitY=0.5;exitDx=0;exitDy=0;entryX=0;entryY=0.5;entryDx=0;entryDy=0;" edge="1" parent="1" source="pNp7g_-f6zzDylvKtAG7-1" target="pNp7g_-f6zzDylvKtAG7-5">
          <mxGeometry relative="1" as="geometry">
            <Array as="points">
              <mxPoint x="170" y="65" />
              <mxPoint x="170" y="108" />
            </Array>
          </mxGeometry>
        </mxCell>
        <mxCell id="pNp7g_-f6zzDylvKtAG7-1" value="&lt;b&gt;SELECT&lt;/b&gt;" style="rounded=1;whiteSpace=wrap;html=1;" vertex="1" parent="1">
          <mxGeometry x="80" y="50" width="80" height="30" as="geometry" />
        </mxCell>
        <mxCell id="pNp7g_-f6zzDylvKtAG7-8" style="edgeStyle=orthogonalEdgeStyle;rounded=0;orthogonalLoop=1;jettySize=auto;html=1;exitX=1;exitY=0.5;exitDx=0;exitDy=0;entryX=1;entryY=0.5;entryDx=0;entryDy=0;" edge="1" parent="1" source="pNp7g_-f6zzDylvKtAG7-2" target="pNp7g_-f6zzDylvKtAG7-3">
          <mxGeometry relative="1" as="geometry" />
        </mxCell>
        <mxCell id="pNp7g_-f6zzDylvKtAG7-2" value="columnname" style="rounded=0;whiteSpace=wrap;html=1;" vertex="1" parent="1">
          <mxGeometry x="340" y="50" width="80" height="30" as="geometry" />
        </mxCell>
        <mxCell id="pNp7g_-f6zzDylvKtAG7-12" style="edgeStyle=orthogonalEdgeStyle;rounded=0;orthogonalLoop=1;jettySize=auto;html=1;entryX=0;entryY=0.5;entryDx=0;entryDy=0;exitX=0;exitY=0.5;exitDx=0;exitDy=0;" edge="1" parent="1" source="pNp7g_-f6zzDylvKtAG7-3" target="pNp7g_-f6zzDylvKtAG7-2">
          <mxGeometry relative="1" as="geometry" />
        </mxCell>
        <mxCell id="pNp7g_-f6zzDylvKtAG7-3" value="&lt;b&gt;,&lt;/b&gt;" style="ellipse;whiteSpace=wrap;html=1;aspect=fixed;" vertex="1" parent="1">
          <mxGeometry x="367.5" y="90" width="35" height="35" as="geometry" />
        </mxCell>
        <mxCell id="pNp7g_-f6zzDylvKtAG7-15" style="edgeStyle=orthogonalEdgeStyle;rounded=0;orthogonalLoop=1;jettySize=auto;html=1;" edge="1" parent="1" source="pNp7g_-f6zzDylvKtAG7-5">
          <mxGeometry relative="1" as="geometry">
            <mxPoint x="290" y="70" as="targetPoint" />
          </mxGeometry>
        </mxCell>
        <mxCell id="pNp7g_-f6zzDylvKtAG7-5" value="&lt;b&gt;DISTINCT&lt;/b&gt;" style="rounded=1;whiteSpace=wrap;html=1;" vertex="1" parent="1">
          <mxGeometry x="190" y="93.75" width="80" height="27.5" as="geometry" />
        </mxCell>
      </root>
    </mxGraphModel>
  </diagram>
</mxfile>
